<svg xmlns="http://www.w3.org/2000/svg" xmlns:xlink="http://www.w3.org/1999/xlink" x="0" y="0" width="661.6000366210938" height="473.3999938964844" style="
        width:661.6000366210938px;
        height:473.3999938964844px;
        background: transparent;
        fill: none;
">
        
        
        <svg xmlns="http://www.w3.org/2000/svg" class="role-diagram-draw-area"><g class="shapes-region" style="stroke: black; fill: none;"><g class="grouped-shape"><g class="grouped-shape"><g class="arrow-line"><path class="connection real" stroke-dasharray="" d="  M282.12,223.6 C207.28,167.76 137.13,231.04 66.97,148.21" style="stroke: rgb(0, 0, 0); stroke-width: 1; fill: rgb(207, 203, 203); fill-opacity: 1;"/></g><g class="arrow-line"><path class="connection real" stroke-dasharray="" d="  M247.82,292.46 C207.28,292.46 88.8,279.44 66.97,148.21" style="stroke: rgb(0, 0, 0); stroke-width: 1; fill: rgb(207, 203, 203); fill-opacity: 1;"/></g><g class="arrow-line"><path class="connection real" stroke-dasharray="" d="  M282.12,223.6 C299.27,231.04 313.3,296.19 247.82,292.46" style="stroke: rgb(0, 0, 0); stroke-width: 1; fill: rgb(207, 203, 203); fill-opacity: 1;"/></g><g class="arrow-line"><path class="connection real" stroke-dasharray="" d="  M193.25,218.01 C149.6,236.63 73.21,194.75 73.21,175.2" style="stroke: rgb(0, 0, 0); stroke-width: 1; fill: rgb(207, 203, 203); fill-opacity: 1;"/></g><g class="arrow-line"><path class="connection real" stroke-dasharray="" d="  M202.22,243.37 C158.56,261.99 96.98,221.22 82.17,200.56" style="stroke: rgb(0, 0, 0); stroke-width: 1; fill: rgb(207, 203, 203); fill-opacity: 1;"/></g><g class="arrow-line"><path class="connection real" stroke-dasharray="" d="  M218.98,268.27 C175.32,286.88 113.35,244.96 96.98,224.02" style="stroke: rgb(0, 0, 0); stroke-width: 1; fill: rgb(207, 203, 203); fill-opacity: 1;"/></g></g><g class="grouped-shape"><g class="arrow-line"><path class="connection real" stroke-dasharray="" d="  M354.95,229.16 C429.78,173.32 499.94,236.61 570.1,153.78" style="stroke: rgb(0, 0, 0); stroke-width: 1; fill: rgb(207, 203, 203); fill-opacity: 1;"/></g><g class="arrow-line"><path class="connection real" stroke-dasharray="" d="  M389.25,298.03 C429.78,298.03 548.27,285 570.1,153.78" style="stroke: rgb(0, 0, 0); stroke-width: 1; fill: rgb(207, 203, 203); fill-opacity: 1;"/></g><g class="arrow-line"><path class="connection real" stroke-dasharray="" d="  M354.95,229.16 C337.8,236.61 323.77,301.75 389.25,298.03" style="stroke: rgb(0, 0, 0); stroke-width: 1; fill: rgb(207, 203, 203); fill-opacity: 1;"/></g><g class="arrow-line"><path class="connection real" stroke-dasharray="" d="  M443.81,223.58 C487.47,242.19 563.86,200.31 563.86,180.77" style="stroke: rgb(0, 0, 0); stroke-width: 1; fill: rgb(207, 203, 203); fill-opacity: 1;"/></g><g class="arrow-line"><path class="connection real" stroke-dasharray="" d="  M434.85,248.94 C478.5,267.55 540.09,226.79 554.9,206.13" style="stroke: rgb(0, 0, 0); stroke-width: 1; fill: rgb(207, 203, 203); fill-opacity: 1;"/></g><g class="arrow-line"><path class="connection real" stroke-dasharray="" d="  M418.09,273.83 C461.74,292.44 523.72,250.52 540.09,229.58" style="stroke: rgb(0, 0, 0); stroke-width: 1; fill: rgb(207, 203, 203); fill-opacity: 1;"/></g></g><g class="grouped-shape"><g class="grouped-shape"><g class="composite-shape"><path class="real" d=" M285.47,14.37 C296.61,14.37 307.09,17.15 316.24,22.04 C320.03,21.82 323.89,21.7 327.79,21.68 C339.3,11.22 354.69,4.83 371.59,4.83 C407.27,4.83 436.19,33.3 436.19,68.42 C436.19,70.05 436.12,71.67 436,73.28 C436.12,74.35 436.19,75.43 436.19,76.52 C436.19,80 435.55,83.39 434.34,86.68 C458.8,92.98 476.47,111.1 476.47,132.48 C476.47,147.16 468.13,160.31 454.99,169.14 C443.9,185.7 414.58,199.11 376.58,205.39 C371.75,218.11 367.72,231.7 364.73,245.82 C361.79,259.73 360.09,273.13 359.52,285.69 C363.06,285.6 366.62,285.56 370.2,285.56 C384.7,285.56 398.76,286.3 412.15,287.69 C425.24,275.51 434.76,262.26 439.99,249.18 C435.99,238.54 431.08,229.59 425.45,222.69 C451.73,215.73 474.11,236.28 483.72,271.64 C485.9,271.38 488.12,271.25 490.36,271.25 C521.82,271.25 547.32,297.58 547.32,330.06 C547.32,337.64 545.93,344.89 543.4,351.54 C570.67,363.24 587.6,379.56 587.6,397.62 C587.6,433.18 521.99,462 441.05,462 C407.31,462 376.23,456.99 351.46,448.57 C326.74,456.03 296.54,460.41 263.94,460.41 C180.31,460.41 112.52,431.59 112.52,396.03 C112.52,376.77 132.41,359.49 163.93,347.69 C163.01,344.04 162.53,340.28 162.53,336.42 C162.53,303.94 196.74,277.61 238.93,277.61 C247.37,277.61 255.49,278.66 263.08,280.6 C266.13,274.1 269,267.18 271.65,259.88 C278.07,242.17 282.53,223.97 285.1,206.32 C264.58,203.4 246.33,198.44 231.77,192.02 C208.39,185.26 191.7,167.56 191.7,146.78 C191.7,127.69 205.8,111.19 226.25,103.4 C222.79,95.61 220.87,87 220.87,77.95 C220.87,77.67 220.87,77.38 220.88,77.1 C220.87,76.91 220.87,76.72 220.87,76.52 C220.87,75.56 220.92,74.59 221.02,73.64 C223.27,40.53 251.27,14.37 285.47,14.37 Z  M449.49,289.11 C449.33,287.89 449.17,286.68 448.99,285.49 C448.7,287.3 448.32,289.11 447.86,290.91 C448.39,290.3 448.93,289.7 449.49,289.11 Z" style="stroke-width: 1; stroke: rgb(0, 0, 0); fill: rgb(130, 181, 77); fill-opacity: 1;"/></g><g class="composite-shape"><path class="real" d=" M254.21,108.28 C254.21,100.31 258.85,93.85 264.57,93.85 C270.3,93.85 274.94,100.31 274.94,108.28 C274.94,116.26 270.3,122.72 264.57,122.72 C258.85,122.72 254.21,116.26 254.21,108.28 Z" style="stroke-width: 1; stroke: rgb(0, 0, 0); fill: rgb(0, 0, 0); fill-opacity: 1;"/></g><g class="composite-shape"><path class="real" d=" M376.45,98.11 C376.45,90.14 381.09,83.68 386.82,83.68 C392.54,83.68 397.18,90.14 397.18,98.11 C397.18,106.08 392.54,112.54 386.82,112.54 C381.09,112.54 376.45,106.08 376.45,98.11 Z" style="stroke-width: 1; stroke: rgb(0, 0, 0); fill: rgb(0, 0, 0); fill-opacity: 1;"/></g><g class="composite-shape"><path class="real" d=" M303.11,126.96 C303.11,124.39 305.01,122.3 307.36,122.3 C309.71,122.3 311.61,124.39 311.61,126.96 C311.61,129.53 309.71,131.62 307.36,131.62 C305.01,131.62 303.11,129.53 303.11,126.96 Z" style="stroke-width: 1; stroke: rgb(0, 0, 0); fill: rgb(0, 0, 0); fill-opacity: 1;"/></g><g class="composite-shape"><path class="real" d=" M344.09,126.96 C344.09,124.39 346.15,122.3 348.69,122.3 C351.22,122.3 353.28,124.39 353.28,126.96 C353.28,129.53 351.22,131.62 348.69,131.62 C346.15,131.62 344.09,129.53 344.09,126.96 Z" style="stroke-width: 1; stroke: rgb(0, 0, 0); fill: rgb(0, 0, 0); fill-opacity: 1;"/></g><g class="arrow-line"><path class="connection real" stroke-dasharray="" d="  M287.27,170.79 C315.75,184.3 317.42,154.89 329.09,154.89 C340.75,154.89 343.53,184.3 369.93,168.4" style="stroke: rgb(0, 0, 0); stroke-width: 1; fill: none; fill-opacity: 1;"/></g></g><g class="arrow-line"><path class="connection real" stroke-dasharray="" d="  M263.08,280.6 C226.98,328.16 236.71,425.12 351.46,448.57" style="stroke: rgb(0, 0, 0); stroke-width: 1; fill: none; fill-opacity: 1;"/></g></g><g class="arrow-line"><path class="connection real" stroke-dasharray="" d="  M359.52,285.69 C360.91,371.85 432.27,334.06 543.4,351.54" style="stroke: rgb(0, 0, 0); stroke-width: 1; fill: none; fill-opacity: 1;"/></g><g class="arrow-line"><path class="connection real" stroke-dasharray="" d="  M163.93,347.69 C214.76,343.73 243.93,373.94 248.1,361.22" style="stroke: rgb(0, 0, 0); stroke-width: 1; fill: none; fill-opacity: 1;"/></g><g class="arrow-line"><path class="connection real" stroke-dasharray="" d="  M412.15,287.69 C463.66,297.56 484.25,270.61 483.72,271.64" style="stroke: rgb(0, 0, 0); stroke-width: 1; fill: none; fill-opacity: 1;"/></g></g><g/></g><g/><g/><g/></svg>
        <svg xmlns="http://www.w3.org/2000/svg" xmlns:xlink="http://www.w3.org/1999/xlink" width="660" height="471.8000183105469" style="width:660px;height:471.8000183105469px;font-family:Asana-Math, Asana;background:transparent;"></svg>
</svg>
